<svg version="1.1" xmlns="http://www.w3.org/2000/svg" xmlns:xlink="http://www.w3.org/1999/xlink" width="297" height="218" viewBox="0,0,297,218"><g transform="translate(-91.5,-71)"><g data-paper-data="{&quot;isPaintingLayer&quot;:true}" fill-rule="nonzero" stroke="none" stroke-linecap="butt" stroke-linejoin="miter" stroke-miterlimit="10" stroke-dasharray="" stroke-dashoffset="0" style="mix-blend-mode: normal"><path d="M91.5,289v-218h297v218z" fill="#f6f6f6" stroke-width="0"/><path d="M201.00316,158.60165c0,0 -1.49275,-3.3909 -1.93158,-5.66803c-0.40861,-2.12031 -0.61722,-7.5579 -0.61722,-7.5579l6.53824,0.09938c0,0 0.18595,4.60615 0.55975,6.63795c0.4226,2.29702 2.94065,6.347 2.94065,6.347z" fill="#1f1f1f" stroke-width="0"/><path d="M157.92792,172.69727v-58.82739h12.08306v18.81417c0,0 7.09975,3.80899 11.12106,4.56669c5.26841,0.99268 9.80707,1.20941 9.80707,1.20941l0.08259,11.43742c0,0 -6.54298,-0.19015 -10.86238,-1.01762c-3.96893,-0.76033 -10.32696,-3.52988 -10.32696,-3.52988l0.17862,27.3472z" fill="#1f1f1f" stroke-width="0"/><path d="M180.1011,120.51198v-7.87763h4.67733v7.87763z" fill="#1f1f1f" stroke-width="0"/><path d="M187.0705,120.83464v-7.87763h4.67733v7.87763z" fill="#1f1f1f" stroke-width="0"/><path d="M211.36981,158.73191c0,0 -1.49276,-3.3909 -1.93159,-5.66803c-0.40861,-2.12031 -0.61722,-7.55791 -0.61722,-7.55791l6.53824,0.09938c0,0 0.18595,4.60616 0.55975,6.63796c0.4226,2.29702 2.94065,6.347 2.94065,6.347z" fill="#1f1f1f" stroke-width="0"/><path d="M207.77945,172.33899c0,0 5.46321,-4.68718 7.84787,-8.63551c2.76991,-4.58619 3.68821,-6.72808 4.05333,-8.13533c1.07567,-4.14579 1.21958,-9.98972 1.21958,-9.98972l6.31754,-0.10744c0,0 0.51695,5.56238 -1.53965,12.30885c-0.36745,2.03426 -4.71565,9.16876 -4.92734,9.42292c-2.90323,3.48563 -4.26765,5.01085 -4.26765,5.01085z" fill="#1f1f1f" stroke-width="0"/><path d="M236.59459,173.03061v-58.82739h12.08306v18.81417c0,0 7.09974,3.80899 11.12105,4.56669c5.2684,0.99268 9.80707,1.20941 9.80707,1.20941l0.08259,11.43743c0,0 -6.54298,-0.19015 -10.86238,-1.01762c-3.96893,-0.76033 -10.32696,-3.52988 -10.32696,-3.52988l0.17863,27.3472z" fill="#1f1f1f" stroke-width="0"/><path d="M171.71157,247.36565v-60.4h9.66666v60.4z" fill="#1f1f1f" stroke-width="0"/><path d="M157.6449,208.36565v-9.6h37.4v9.6z" fill="#1f1f1f" stroke-width="0"/><path d="M154.471,241.19685c0,0 3.0699,-8.15326 3.5851,-12.77753c0.45573,-4.09035 0.68242,-13.36328 0.68242,-13.36328l7.97111,-0.20006c0,0 -0.25432,10.94675 -0.75249,15.21528c-0.535,4.58424 -2.3549,11.41065 -2.3549,11.41065z" data-paper-data="{&quot;index&quot;:null}" fill="#1f1f1f" stroke-width="0"/><path d="M188.17839,241.68191c0,0 -1.8199,-7.08279 -2.3549,-11.83921c-0.49816,-4.42884 -0.75249,-15.78673 -0.75249,-15.78673l7.97111,0.20758c0,0 0.2267,9.6212 0.68242,13.86516c0.51521,4.79795 3.5851,13.25742 3.5851,13.25742z" data-paper-data="{&quot;index&quot;:null}" fill="#1f1f1f" stroke-width="0"/><path d="M185.1011,194.71198v-7.87762h4.67733v7.87762z" fill="#1f1f1f" stroke-width="0"/><path d="M192.0705,195.03464v-7.87762h4.67733v7.87762z" fill="#1f1f1f" stroke-width="0"/><path d="M206.80316,232.80165c0,0 -1.49276,-3.3909 -1.93159,-5.66803c-0.40861,-2.12031 -0.61722,-7.55791 -0.61722,-7.55791l6.53824,0.09938c0,0 0.18595,4.60616 0.55976,6.63796c0.4226,2.29702 2.94065,6.347 2.94065,6.347z" fill="#1f1f1f" stroke-width="0"/><path d="M217.16981,232.93191c0,0 -1.49275,-3.3909 -1.93158,-5.66803c-0.40861,-2.12031 -0.61722,-7.55791 -0.61722,-7.55791l6.53824,0.09938c0,0 0.18595,4.60616 0.55975,6.63796c0.4226,2.29702 2.94065,6.347 2.94065,6.347z" fill="#1f1f1f" stroke-width="0"/><path d="M213.57945,246.53899c0,0 5.46321,-4.68719 7.84788,-8.63552c2.76991,-4.58619 3.6882,-6.72808 4.05333,-8.13533c1.07567,-4.14579 1.21958,-9.98972 1.21958,-9.98972l6.31754,-0.10744c0,0 0.51695,5.56238 -1.53966,12.30886c-0.36745,2.03426 -4.71564,9.16875 -4.92734,9.42291c-2.90323,3.48563 -4.26765,5.01085 -4.26765,5.01085z" fill="#1f1f1f" stroke-width="0"/><path d="M239.59399,218.82631c0,0 5.03397,-9.98856 6.88735,-15.12905c1.6582,-4.59915 3.71265,-14.27095 3.71265,-14.27095h30.48572c0,0 -3.55751,23.20109 -6.38012,32.11684c-2.7907,8.81497 -11.61033,25.30354 -11.61033,25.30354l-11.4667,-0.02038c0,0 9.94935,-18.16284 12.61971,-26.37931c2.52105,-7.75708 5.55172,-21.62069 5.55172,-21.62069h-12c0,0 -1.99588,6.76067 -3.15169,10.00335c-1.23847,3.47462 -4.84831,10.19664 -4.84831,10.19664z" fill="#1f1f1f" stroke-width="0"/><path d="M286.05351,200.01751v-10.33334h33.33333c0,0 -1.11223,6.63988 -2.89378,13.49375c-1.81408,6.97898 -3.64674,13.22671 -3.64674,13.22671l12.68268,29.08177l-11.00065,-0.16978l-7.57037,-17.68038c0,0 -2.73993,5.30979 -4.60691,8.51948c-1.98062,3.40507 -6.62272,9.69277 -6.62272,9.69277l-11.42483,0.00235c0,0 11.18891,-16.41244 14.60792,-24.72983c4.46608,-10.86459 6.30875,-21.1035 6.30875,-21.1035z" fill="#1f1f1f" stroke-width="0"/><g fill="#5a5a5a" stroke-width="0"><path d="M153.97511,91.85001c0,1.38465 -1.11929,2.50714 -2.5,2.50714c-1.38071,0 -2.5,-1.12249 -2.5,-2.50714c0,-1.38465 1.11929,-2.50714 2.5,-2.50714c1.38071,0 2.5,1.12249 2.5,2.50714z"/><path d="M189.97512,92.35001c0,1.38465 -1.11929,2.50714 -2.5,2.50714c-1.38071,0 -2.5,-1.12249 -2.5,-2.50714c0,-1.38465 1.11929,-2.50714 2.5,-2.50714c1.38071,0 2.5,1.12249 2.5,2.50714z"/><path d="M225.80845,92.10001c0,1.38465 -1.11929,2.50714 -2.5,2.50714c-1.38071,0 -2.5,-1.12249 -2.5,-2.50714c0,-1.38465 1.11929,-2.50714 2.5,-2.50714c1.38071,0 2.5,1.12249 2.5,2.50714z"/><path d="M261.55845,92.01668c0,1.38465 -1.11929,2.50714 -2.5,2.50714c-1.38071,0 -2.5,-1.12248 -2.5,-2.50714c0,-1.38465 1.11929,-2.50715 2.5,-2.50715c1.38071,0 2.5,1.12249 2.5,2.50715z"/><path d="M297.89178,92.10001c0,1.38465 -1.11929,2.50714 -2.5,2.50714c-1.38071,0 -2.5,-1.12249 -2.5,-2.50714c0,-1.38465 1.11929,-2.50714 2.5,-2.50714c1.38071,0 2.5,1.12249 2.5,2.50714z"/><path d="M333.55845,91.93334c0,1.38465 -1.11929,2.50714 -2.5,2.50714c-1.38071,0 -2.5,-1.12248 -2.5,-2.50714c0,-1.38465 1.11929,-2.50714 2.5,-2.50714c1.38071,0 2.5,1.12249 2.5,2.50714z"/><g><path d="M152.87512,268.15c0,1.38466 -1.11929,2.50715 -2.5,2.50715c-1.38071,0 -2.5,-1.12249 -2.5,-2.50715c0,-1.38466 1.11929,-2.50714 2.5,-2.50714c1.38071,0 2.5,1.12248 2.5,2.50714z"/><path d="M188.87512,268.65c0,1.38466 -1.11929,2.50715 -2.5,2.50715c-1.38071,0 -2.5,-1.12249 -2.5,-2.50715c0,-1.38466 1.11929,-2.50714 2.5,-2.50714c1.38071,0 2.5,1.12248 2.5,2.50714z"/><path d="M224.70845,268.4c0,1.38466 -1.11929,2.50715 -2.5,2.50715c-1.38071,0 -2.5,-1.12249 -2.5,-2.50715c0,-1.38466 1.11929,-2.50714 2.5,-2.50714c1.38071,0 2.5,1.12248 2.5,2.50714z"/><path d="M260.45845,268.31667c0,1.38466 -1.11929,2.50714 -2.5,2.50714c-1.38071,0 -2.5,-1.12249 -2.5,-2.50714c0,-1.38466 1.11929,-2.50714 2.5,-2.50714c1.38071,0 2.5,1.12249 2.5,2.50714z"/><path d="M296.79178,268.4c0,1.38466 -1.11929,2.50715 -2.5,2.50715c-1.38071,0 -2.5,-1.12249 -2.5,-2.50715c0,-1.38466 1.11929,-2.50714 2.5,-2.50714c1.38071,0 2.5,1.12248 2.5,2.50714z"/><path d="M332.45845,268.23334c0,1.38466 -1.11929,2.50714 -2.5,2.50714c-1.38071,0 -2.5,-1.12248 -2.5,-2.50714c0,-1.38466 1.11929,-2.50714 2.5,-2.50714c1.38071,0 2.5,1.12249 2.5,2.50714z"/><g><path d="M365.37512,267.65c0,1.38466 -1.11929,2.50715 -2.5,2.50715c-1.38071,0 -2.5,-1.12249 -2.5,-2.50715c0,-1.38466 1.11929,-2.50714 2.5,-2.50714c1.38071,0 2.5,1.12248 2.5,2.50714z"/><path d="M366.47512,91.35001c0,1.38465 -1.11929,2.50714 -2.5,2.50714c-1.38071,0 -2.5,-1.12249 -2.5,-2.50714c0,-1.38465 1.11929,-2.50714 2.5,-2.50714c1.38071,0 2.5,1.12249 2.5,2.50714z"/><path d="M362.34724,232.95273c1.38448,0.02212 2.48894,1.1592 2.46688,2.53974c-0.02206,1.38054 -1.16228,2.48174 -2.54676,2.45962c-1.38448,-0.02212 -2.48895,-1.1592 -2.46688,-2.53974c0.02206,-1.38054 1.16228,-2.48174 2.54676,-2.45962z"/><path d="M363.42232,196.96531c1.38448,0.02212 2.48894,1.1592 2.46688,2.53974c-0.02206,1.38054 -1.16228,2.48175 -2.54676,2.45963c-1.38448,-0.02212 -2.48895,-1.1592 -2.46689,-2.53974c0.02206,-1.38054 1.16229,-2.48175 2.54677,-2.45963z"/><path d="M363.74482,161.13256c1.38448,0.02212 2.48894,1.1592 2.46688,2.53973c-0.02206,1.38054 -1.16228,2.48175 -2.54676,2.45963c-1.38448,-0.02212 -2.48895,-1.1592 -2.46688,-2.53974c0.02206,-1.38054 1.16228,-2.48174 2.54676,-2.45962z"/><path d="M364.23265,125.38579c1.38448,0.02212 2.48894,1.1592 2.46688,2.53973c-0.02206,1.38054 -1.16228,2.48175 -2.54676,2.45963c-1.38448,-0.02212 -2.48895,-1.1592 -2.46688,-2.53973c0.02206,-1.38053 1.16228,-2.48175 2.54676,-2.45963z"/></g><g><path d="M118.87512,268.15c0,1.38466 -1.11929,2.50715 -2.5,2.50715c-1.38071,0 -2.5,-1.12249 -2.5,-2.50715c0,-1.38466 1.11929,-2.50714 2.5,-2.50714c1.38071,0 2.5,1.12248 2.5,2.50714z"/><path d="M119.97512,91.85001c0,1.38465 -1.11929,2.50714 -2.5,2.50714c-1.38071,0 -2.5,-1.12249 -2.5,-2.50714c0,-1.38465 1.11929,-2.50714 2.5,-2.50714c1.38071,0 2.5,1.12249 2.5,2.50714z"/><path d="M115.84724,233.45273c1.38448,0.02212 2.48894,1.1592 2.46688,2.53974c-0.02206,1.38054 -1.16228,2.48174 -2.54676,2.45962c-1.38448,-0.02212 -2.48894,-1.1592 -2.46688,-2.53974c0.02206,-1.38054 1.16228,-2.48174 2.54676,-2.45962z"/><path d="M116.92232,197.46531c1.38448,0.02212 2.48894,1.1592 2.46688,2.53974c-0.02206,1.38054 -1.16228,2.48175 -2.54676,2.45963c-1.38448,-0.02212 -2.48894,-1.1592 -2.46688,-2.53974c0.02206,-1.38054 1.16228,-2.48175 2.54676,-2.45963z"/><path d="M117.24482,161.63256c1.38448,0.02212 2.48894,1.1592 2.46688,2.53973c-0.02206,1.38054 -1.16228,2.48175 -2.54676,2.45963c-1.38448,-0.02212 -2.48895,-1.1592 -2.46689,-2.53974c0.02206,-1.38054 1.16229,-2.48174 2.54677,-2.45962z"/><path d="M117.73265,125.88579c1.38448,0.02212 2.48894,1.1592 2.46688,2.53973c-0.02206,1.38054 -1.16228,2.48175 -2.54676,2.45963c-1.38448,-0.02212 -2.48895,-1.1592 -2.46689,-2.53974c0.02206,-1.38053 1.16229,-2.48175 2.54677,-2.45963z"/></g></g></g><path d="M152.75,91c0,2 -2,2 -2,2l-0.98507,-0.05971c-3.21169,-0.83112 -6.70603,-0.44029 -10.01493,-0.44029c-6.66666,0 -13.33334,0 -20,0c0,0 -2,0 -2,-2c0,-2 2,-2 2,-2c6.66666,0 13.33334,0 20,0c3.68207,0 7.39755,-0.31244 10.98507,0.55971l0.01493,-0.05971c0,0 2,0 2,2z" fill="#f584cb" stroke-width="0.5"/><path d="M224.25,92c0,2 -2,2 -2,2c-10.83334,0 -23.16666,0 -34,0c0,0 -2,0 -2,-2c0,-2 2,-2 2,-2c10.83334,0 21.66666,0 32.5,0h1.5c0,0 2,0 2,2z" fill="#f584cb" stroke-width="0.5"/><path d="M363.74776,122.17935c0.28186,0.33755 1.11512,1.53621 -0.08354,2.73487c-1.41422,1.41421 -2.82843,0 -2.82843,0l-1.08578,-1.91421c0,-6.97298 -0.5,-13.96887 -0.5,-21c0,-2.16657 -0.00865,-4.33344 0,-6.5c0.00234,-0.58523 -0.04961,-1.17398 0.01499,-1.75563c0.0263,-0.23677 0.46942,-0.56583 0.25419,-0.66796c-0.26444,-0.12548 -0.47984,0.37933 -0.76918,0.42359c-1.87794,0.28726 -4.09764,0 -6,0c-3.83333,0 -7.66667,0 -11.5,0c-3.13023,0 -5.32552,-0.48398 -7.97101,1.21498c0,0 -1.71499,1.02899 -2.74398,-0.686c-1.02899,-1.71498 0.68599,-2.74397 0.68599,-2.74397c6.29486,-3.59905 16.30198,-1.78502 23.52899,-1.78502c1.55969,0 6.08538,-0.53557 7.23082,0.42359c2.43676,2.04048 1.26918,9.25751 1.26918,12.07641c0,6.7578 0.46157,13.47493 0.49775,20.17934z" fill="#f584cb" stroke-width="0.5"/><path d="M116.25,237c-2,0 -2,-2 -2,-2v-1c0,-4.6804 0.57879,-9.03483 1.00682,-13.66496c0.5821,-6.29686 -0.00682,-13.00478 -0.00682,-19.33504c0,0 0,-2 2,-2c2,0 2,2 2,2c0,6.45019 0.56744,13.24621 -0.00682,19.66496c-0.40526,4.52991 -0.99318,8.76389 -0.99318,13.33504v1c0,0 0,2 -2,2z" fill="#f584cb" stroke-width="0.5"/><path d="M222.75,268.5c0,2 -2,2 -2,2h-1.5c-5.18191,0 -10.54114,0.41436 -15.69708,-0.00973c-4.58538,-0.37716 -11.26799,-1.92991 -15.4085,0.29859c0,0 -1.78886,0.89443 -2.68328,-0.89443c-0.89443,-1.78886 0.89443,-2.68328 0.89443,-2.68328c5.20128,-2.47286 11.99093,-1.17458 17.5915,-0.70141c5.01783,0.42393 10.25694,-0.00973 15.30292,-0.00973h1.5c0,0 2,0 2,2z" fill="#f584cb" stroke-width="0.5"/><path d="M330.75,269.5c0,2 -2,2 -2,2h-2c-9.93079,0 -19.95805,-0.13027 -29.78285,-1.5201c0,0 -0.28415,-0.04059 -0.62179,-0.19867c-0.58439,0.71877 -1.59537,0.71877 -1.59537,0.71877h-1c-6.74935,0 -13.51977,0.25107 -20.19707,-0.50973c-4.73929,-0.53999 -9.46109,0.40027 -14.19515,-0.52911c0,0 -1.96116,-0.39223 -1.56893,-2.35339c0.39223,-1.96116 2.35339,-1.56893 2.35339,-1.56893c4.57472,0.93464 9.20065,-0.02876 13.80485,0.47089c6.55053,0.71087 13.18094,0.49027 19.80293,0.49027h1c0,0 0.44517,0 0.91546,0.21002c0.66453,-0.86176 1.86739,-0.68992 1.86739,-0.68992c9.62745,1.38992 19.48181,1.4799 29.21715,1.4799h2c0,0 2,0 2,2z" fill="#f584cb" stroke-width="0.5"/><path d="M361.25,267.5c-2,0 -2,-2 -2,-2c0,-9.5 0,-21 0,-30.5c0,0 0,-2 2,-2c2,0 2,2 2,2c0,9.5 0,19 0,28.5v2c0,0 0,2 -2,2z" fill="#f584cb" stroke-width="0.5"/><path d="M117.25,127.5c-2,0 -2,-2 -2,-2v-1.5c0,-5.80079 -0.42272,-11.5295 -0.98502,-17.25563c-0.36252,-3.69172 0.13581,-7.22796 -0.48777,-10.91556c0,0 -0.3288,-1.97279 1.64399,-2.30159c1.97279,-0.3288 2.30159,1.64399 2.30159,1.64399c0.61742,3.75374 0.13107,7.3471 0.51223,11.08444c0.60031,5.88606 1.01498,11.78253 1.01498,17.74437v1.5c0,0 0,2 -2,2z" fill="#7ebef9" stroke-width="0.5"/><path d="M298.25,91.5c0,2 -2,2 -2,2h-3.5c-6.62145,0 -13.58741,0.63861 -20.16496,-0.00682c-3.78572,-0.37148 -7.58885,-1.0262 -11.34997,-0.0529c0,0 -1.94029,0.48507 -2.42536,-1.45522c-0.48507,-1.94029 1.45522,-2.42535 1.45522,-2.42535c4.24206,-1.03127 8.38497,-0.48794 12.65003,-0.0529c6.45272,0.6582 13.3341,-0.00682 19.83504,-0.00682h3.5c0,0 2,0 2,2z" fill="#7ebef9" stroke-width="0.5"/><path d="M362.75,165c-2,0 -2,-2 -2,-2c0,-10 0,-22 0,-32c0,0 0,-2 2,-2c2,0 2,2 2,2c0,10 0,20 0,30v2c0,0 0,2 -2,2z" fill="#7ebef9" stroke-width="0.5"/><path d="M362.25,236.5c-2,0 -2,-2 -2,-2c0,-6.33334 0,-14.16666 0,-20.5c0,-5.38035 -0.52309,-9.77601 2.28501,-14.52899c0,0 1.02899,-1.71499 2.74398,-0.686c1.71499,1.02899 0.68599,2.74398 0.68599,2.74398c-2.41449,3.94939 -1.71499,7.93613 -1.71499,12.47101c0,6.33334 0,12.66666 0,19v1.5c0,0 0,2 -2,2z" fill="#7ebef9" stroke-width="0.5"/><path d="M361.75,266.5c0,2 -2,2 -2,2c-8.83333,0 -19.66667,0 -28.5,0c0,0 -2,0 -2,-2c0,-2 2,-2 2,-2c8.83333,0 17.66667,0 26.5,0h2c0,0 2,0 2,2z" fill="#7ebef9" stroke-width="0.5"/><path d="M183.75,266.5c0,2 -2,2 -2,2c-9.66666,0 -19.83334,0 -29.5,0c0,0 -2,0 -2,-2c0,-2 2,-2 2,-2c9.66666,0 19.33334,0 29,0h0.5c0,0 2,0 2,2z" fill="#7ebef9" stroke-width="0.5"/><path d="M117.75,268.5c-2,0 -2,-2 -2,-2c0,-8.66667 0,-18.33334 0,-27c0,0 0,-2 2,-2c2,0 2,2 2,2c0,8.66666 0,17.33333 0,26v1c0,0 0,2 -2,2z" fill="#7ebef9" stroke-width="0.5"/><path d="M332.6386,236c-0.2962,0.28699 -0.73589,0.5 -1.3886,0.5c-2,0 -2,-2 -2,-2l2,-2.5c5,0 10,0 15,0c4.53513,0 8.02093,-0.50657 12.02899,1.78501c0,0 1.71499,1.02899 0.68599,2.74398c-1.02899,1.71499 -2.74398,0.686 -2.74398,0.686c-3.02618,-1.94345 -6.40101,-1.21499 -9.97101,-1.21499c-4.53713,0 -9.07427,0 -13.6114,0z" fill="#bddcfa" stroke-width="0.5"/><path d="M354.18163,262.54007c-1.04007,-0.69338 -0.34669,-1.73344 -0.34669,-1.73344l0.31434,-0.30177c0.00847,-0.04219 0.01801,-0.08458 0.02859,-0.12704c-2.47109,1.61811 -6.27697,4.38689 -8.20771,1.85054c-0.12701,-0.16685 1.37464,-3.3121 1.60872,-3.66254c1.40778,-2.10755 3.33594,-3.88358 5.00459,-5.77418c-2.89747,1.47492 -5.50407,3.40792 -8.2484,5.23711c-0.39113,0.27943 -3.36954,2.40976 -3.67131,2.61424c-2.00383,1.35782 -7.01993,3.81767 -5.11875,-1.27234c0.10836,-0.29012 2.59973,-3.14642 2.60496,-3.15281c2.21781,-2.7099 4.7949,-5.01735 7.267,-7.45614c-1.72957,1.09284 -3.4563,2.18193 -5.13149,3.31683c-1.57013,1.06373 -4.71443,4.05205 -6.54379,4.36648c-0.12243,0.02105 -0.24464,0.03062 -0.36666,0.03084v0.02414h-0.86949c0.07617,2.1673 0.1122,4.34244 0.11848,6.5396c0.30685,0.53003 0.58751,1.45232 -0.33477,2.37461c-1.41422,1.41422 -2.82843,0 -2.82843,0l-0.83578,-1.66422c0,-5.64076 -0.07727,-11.1645 -0.73621,-16.76553c-0.51873,-4.40921 -1.5548,-8.42371 1.572,-11.89868c0,0 1.41422,-1.41422 2.82843,0c1.41422,1.41422 0,2.82843 0,2.82843c-1.80415,1.43992 -0.94127,4.38112 -0.678,6.60132c0.01472,0.12414 0.02925,0.24823 0.04359,0.37226c0.4107,-0.86347 0.97252,-1.80612 1.20614,-2.11868c2.07838,-2.7806 4.5555,-4.74925 6.82333,-7.34224c0,0 0.82313,-0.94072 1.76385,-0.11759c0.94072,0.82313 0.11759,1.76385 0.11759,1.76385c-2.22791,2.54505 -4.64118,4.45376 -6.67667,7.15776c-0.15621,0.20752 -0.32804,0.53141 -0.51166,0.8134c0.3934,-0.22586 0.78726,-0.45103 1.1886,-0.66232c0.63662,-0.33517 1.30684,-0.60632 1.9316,-0.96311c3.25272,-1.85754 6.01228,-4.383 9.36534,-6.05916l0.05662,0.00167l-0.00879,-0.02196l1.22368,-0.48947c0.15062,-0.06432 0.31643,-0.09993 0.49056,-0.09993c0.69036,0 1.25,0.55964 1.25,1.25c0,0.4633 -0.25206,0.86774 -0.62653,1.08365l-1.23035,0.73821l-0.08609,-0.14348c-2.17425,2.35115 -4.67315,4.17384 -6.87562,6.65527c-1.4481,1.63151 -2.86034,3.25974 -4.26113,4.90333c0.85904,-0.50082 1.64701,-0.9295 2.08805,-1.22824c4.83886,-3.27766 10.0196,-6.21241 14.61232,-9.83874l0.19321,-0.01034l-0.0281,-0.07025l1.22368,-0.48947c0.15062,-0.06432 0.31643,-0.09993 0.49056,-0.09993c0.69036,0 1.25,0.55964 1.25,1.25c0,0.30738 -0.11095,0.58884 -0.29498,0.80653l-1.24475,1.4937l-0.32331,-0.26943c-2.93365,4.02883 -7.63059,7.09469 -10.95555,10.80285c-1.24809,1.39192 -2.48363,2.77878 -3.70317,4.18831c1.25372,-0.83116 2.49328,-1.5733 2.8117,-1.80071c3.84371,-2.56297 7.4624,-5.37127 11.90537,-6.84617l1.14396,-0.68637c0.19169,-0.1196 0.41814,-0.1887 0.66073,-0.1887c0.69036,0 1.25,0.55964 1.25,1.25c0,0.20995 -0.05176,0.4078 -0.14321,0.58151l-0.73875,1.4775l-0.42335,-0.21167c-1.15184,2.35336 -3.04085,3.98477 -5.00037,6.22166c-0.49226,0.56194 -0.91708,1.31351 -1.34547,2.03803c1.32401,-0.75781 2.69317,-1.52011 4.03856,-2.1972l1.20186,-0.72111c0.19169,-0.1196 0.41814,-0.18871 0.66073,-0.18871c0.69036,0 1.25,0.55964 1.25,1.25c0,0.12924 -0.01961,0.2539 -0.05602,0.37116l-0.49207,1.72224l-0.05567,-0.0159c-0.03909,0.3918 -0.09361,0.78147 -0.17051,1.16765l-0.68566,1.19823c0,0 -0.69338,1.04007 -1.73344,0.34669zM338.54905,245.61953c-0.60626,0.35616 -1.22597,0.69205 -1.86504,0.9985c-1.36681,0.65542 -3.25687,2.02398 -4.77074,0.70551c0.17262,1.78417 0.30829,3.56015 0.41278,5.33578c2.04496,-2.43931 4.07454,-4.78991 6.223,-7.03979z" fill="#f5bfe1" stroke-width="0.5"/><path d="M310.57407,254.56349c-1.8334,2.1377 -3.57664,4.3284 -5.56518,6.3204c-0.25091,0.25135 -0.49352,0.51198 -0.73656,0.77213c0.89233,-0.55396 1.81685,-1.08539 2.61486,-1.66504c2.54181,-1.84631 4.67814,-4.15607 7.2239,-5.98038c0.8193,-0.68333 1.61636,-1.36291 2.3976,-2.05881c1.57906,-0.5276 3.15519,-1.03711 4.70711,-1.55442l0.15256,-0.05085c0.00437,0.04895 0.00665,0.10007 0.00665,0.15348c0,0.84614 -0.57275,1.11952 -0.94286,1.20784c-1.54128,1.51521 -3.12493,2.89248 -4.79322,4.28157c-3.48812,2.48299 -6.50202,5.59257 -10.05032,8.03688c-0.9317,0.64182 -2.98113,1.84696 -4.11214,1.40848c-2.74057,-1.06249 -1.49207,-2.71413 -0.54577,-4.00377c0.737,-1.0044 1.57888,-1.97256 2.46426,-2.92323c1.86548,-1.10372 3.62393,-2.34298 5.00762,-3.52343c0.81299,-0.35576 1.63559,-0.69368 2.46458,-1.01765c-0.08144,0.34989 -0.29308,0.5968 -0.29308,0.5968z" fill="#f5bfe1" stroke-width="0.5"/><path d="M326.125,254.5c0.75,1 -0.25,1.75 -0.25,1.75l-0.931,0.69432c-2.58224,2.58224 -5.08209,5.89292 -8.13362,7.85103c-1.14187,0.73272 -3.25764,2.97216 -4.78448,0.55003c-0.65791,-1.04368 0.77041,-2.92597 1.40479,-3.66438c1.31419,-1.52972 3.05736,-2.89651 4.1414,-4.60469c1.00646,-1.58594 1.35191,-2.86577 2.59264,-4.37654c0,0 0.80023,-0.96027 1.76051,-0.16004c0.96028,0.80023 0.16005,1.7605 0.16005,1.7605c-1.69831,2.00203 -2.91057,4.27699 -4.47311,6.40718c1.82412,-1.97277 3.80442,-3.76231 5.69383,-5.65172l1.069,-0.80569c0,0 1,-0.75 1.75,0.25z" fill="#f5bfe1" stroke-width="0.5"/><path d="M323.875,267.25c-1.25,0 -1.25,-1.25 -1.25,-1.25v-0.25c0,-2.41536 0.71701,-3.98376 1.28732,-6.30317c0,0 0.30317,-1.21268 1.51585,-0.90951c1.21268,0.30317 0.90951,1.51585 0.90951,1.51585c-0.55195,2.17636 -1.21268,3.48837 -1.21268,5.69683v0.25c0,0 0,1.25 -1.25,1.25z" fill="#f5bfe1" stroke-width="0.5"/><path d="M355.07113,197.58233c0.79983,0.47519 1.02928,1.55006 1.54392,2.3251c-3.05027,3.23814 -6.97805,5.33167 -10.09247,8.46255c-3.35748,3.37524 -6.75617,6.75168 -10.13079,10.1264c1.46181,-0.8263 2.97246,-1.62132 4.25232,-2.51042c4.86662,-3.38079 10.33559,-6.02133 15.11848,-9.57565c1.26686,-0.51728 4.46947,-2.44214 5.50555,-0.16598c0.92023,2.02165 -2.95132,4.19607 -3.96173,5.33934c-4.12345,4.66564 -8.57771,9.13578 -13.03757,13.55138c3.03403,-2.089 6.06241,-4.37968 8.77251,-6.81644c0.5772,-0.51898 3.1897,-3.22558 3.97142,-3.26495c5.382,-0.27106 1.43559,3.79346 0.12126,5.43418c-1.41827,2.11538 -3.26133,3.88513 -4.73273,5.97579c-0.55242,0.78492 -1.19664,1.50909 -1.8924,2.17028c-0.2118,0.20128 -0.53793,0.68324 -0.77911,1.051c0.60367,-0.63154 1.82987,-1.2326 2.36435,-1.66097c1.9226,-1.54093 4.60693,-2.91167 6.05478,-4.80478c0,0 0.78087,-0.97609 1.75696,-0.19522c0.97609,0.78087 0.19522,1.75696 0.19522,1.75696c-1.8755,2.27097 -6.34537,5.9534 -9.17063,7.08894c-1.7179,0.69047 -3.14279,1.2964 -3.78931,-1.41958c-0.49118,-2.06338 1.5311,-3.12133 2.55561,-4.28741c1.37291,-1.56261 2.81586,-3.42354 4.10504,-5.23765c-0.15104,0.10933 -0.28208,0.2078 -0.38621,0.29306c-4.02891,3.29858 -8.46434,7.25194 -13.04059,9.78177c-1.68412,0.93101 -3.43073,2.1964 -3.48649,-1.68323c-0.01473,-1.02521 2.75751,-3.18132 3.26644,-3.62815c4.87306,-4.82325 9.51538,-9.75171 14.33616,-14.5725c0.19666,-0.19666 0.86494,-1.032 1.63841,-1.8839c-5.56093,4.1185 -11.7294,7.81294 -17.6114,11.33965c-1.02993,0.61753 -5.04425,3.36055 -6.52393,2.88226c2.80194,-2.5153 5.44301,-6.56494 7.1015,-8.47719c5.07944,-5.85665 10.7847,-11.2821 15.43106,-17.54625c0.21553,0.01767 0.40023,0.06599 0.54438,0.15163z" fill="#bddcfa" stroke-width="0.5"/><path d="" fill="#bddcfa" stroke-width="0.5"/><path d="M291.09342,169.68937c-1.25093,1.16313 -2.80471,2.12396 -4.91163,2.85185c-6.15188,2.12531 -12.88494,-2.91724 -9.97718,-9.39561c1.3855,-1.42173 2.94443,-2.60151 4.49692,-3.77228c-0.34764,-0.38481 -0.69284,-0.77032 -1.03562,-1.15621c-1.82642,-2.29697 -3.13665,-4.74268 -1.21422,-7.56727c2.01429,-2.95956 9.13298,-3.86723 10.97918,-0.13933c0.89647,1.81019 -0.13586,4.53394 -1.14818,5.98693c-0.83786,1.20259 -1.94554,2.25839 -3.15736,3.25121c1.83885,1.95424 3.7457,3.87205 5.72625,5.7036c1.02623,-1.50926 1.81752,-3.28274 2.89023,-5.28841c0,0 0.71115,-1.32071 2.03186,-0.60956c1.32071,0.71115 0.60956,2.03186 0.60956,2.03186c-1.1826,2.17934 -2.14491,4.14188 -3.33566,5.83264c1.89139,1.63764 3.84824,3.18509 5.87515,4.60236l0.31063,0.13721c0,0 0.16865,0.08432 0.35646,0.25297c-1.68828,0.02573 -3.3549,0.12147 -4.91906,0.20542c-1.21704,-0.93734 -2.40918,-1.91595 -3.5773,-2.92738zM288.86329,167.69395c-2.12249,-1.95968 -4.16333,-4.01466 -6.12823,-6.11009c-1.43436,1.06302 -2.86746,2.11364 -4.06467,3.27053c-1.81509,3.88207 3.50298,5.9145 6.52282,4.85439c1.54706,-0.5431 2.72116,-1.21776 3.67008,-2.01483zM283.08009,157.53198c0.66548,-0.54373 1.31132,-1.10947 1.92175,-1.71764c0.94698,-0.94347 2.11192,-2.64054 1.6923,-4.07486c-0.23578,-0.80593 -3.41622,-0.61622 -3.96247,-0.51861c-3.21383,0.5743 -2.10188,3.41285 -0.77258,5.06201c0.37078,0.41684 0.74443,0.83336 1.12099,1.2491z" fill="#5d5d5d" stroke-width="0.5"/></g></g></svg>
